<?xml version="1.0" encoding="UTF-8"?>
<COLLADA xmlns="http://www.collada.org/2005/11/COLLADASchema" version="1.4.1">
  <asset>
    <contributor>
      <author />
      <authoring_tool>Rhinoceros 8.24.25281.15001</authoring_tool>
      <comments>Output from Rhinoceros COLLADA Exporter</comments>
      <copyright />
      <source_data />
    </contributor>
    <created>2025-12-09T05:10:49Z</created>
    <modified>2025-12-09T05:10:49Z</modified>
    <unit meter="0.001" name="Millimeters" />
    <up_axis>Z_UP</up_axis>
  </asset>
  <library_cameras>
    <camera id="Camera-Perspective" name="Camera-Perspective">
      <optics>
        <technique_common>
          <perspective>
            <xfov>65.892853</xfov>
            <aspect_ratio>2.700329</aspect_ratio>
            <znear>2.042761</znear>
            <zfar>2.620061</zfar>
          </perspective>
        </technique_common>
      </optics>
    </camera>
    <camera id="Camera-Top" name="Camera-Top">
      <optics>
        <technique_common>
          <orthographic>
            <xmag>1.0</xmag>
            <aspect_ratio>2.712389</aspect_ratio>
            <znear>0.005000</znear>
            <zfar>1.405010</zfar>
          </orthographic>
        </technique_common>
      </optics>
    </camera>
    <camera id="Camera-Front" name="Camera-Front">
      <optics>
        <technique_common>
          <orthographic>
            <xmag>1.0</xmag>
            <aspect_ratio>2.718404</aspect_ratio>
            <znear>0.005000</znear>
            <zfar>1.025008</zfar>
          </orthographic>
        </technique_common>
      </optics>
    </camera>
    <camera id="Camera-Right" name="Camera-Right">
      <optics>
        <technique_common>
          <orthographic>
            <xmag>1.0</xmag>
            <aspect_ratio>2.718404</aspect_ratio>
            <znear>0.005000</znear>
            <zfar>2.602537</zfar>
          </orthographic>
        </technique_common>
      </optics>
    </camera>
  </library_cameras>
  <library_materials>
    <material id="a7d0b125-de86-4317-8647-fc09f6459f2f" name="Material-895e08cb804c3b728e7d6675241a696c__1">
      <instance_effect url="#fx-a7d0b125-de86-4317-8647-fc09f6459f2f" />
    </material>
    <material id="a7132d53-c283-4477-a44c-98a09dece634" name="Material-895e08cb804c3b728e7d6675241a696c">
      <instance_effect url="#fx-a7132d53-c283-4477-a44c-98a09dece634" />
    </material>
  </library_materials>
  <library_images>
    <image id="tex-a6a46f29-1a03-44ee-adf2-81a18879f678">
      <!-- Converted to PNG for better Gazebo/Ogre support -->
      <init_from>23/57ba0c47185618a4db5ed31081c5e264.jpg</init_from>
    </image>
  </library_images>
  <library_effects>
    <effect id="fx-a7d0b125-de86-4317-8647-fc09f6459f2f">
      <profile_COMMON>
        <newparam sid="surface-a6a46f29-1a03-44ee-adf2-81a18879f678">
          <surface type="2D">
            <init_from>tex-a6a46f29-1a03-44ee-adf2-81a18879f678</init_from>
            <format>A8R8G8B8</format>
          </surface>
        </newparam>
        <newparam sid="sampler-a6a46f29-1a03-44ee-adf2-81a18879f678">
          <sampler2D>
            <source>surface-a6a46f29-1a03-44ee-adf2-81a18879f678</source>
          </sampler2D>
        </newparam>
        <technique sid="common">
          <phong>
            <diffuse>
              <texture texture="sampler-a6a46f29-1a03-44ee-adf2-81a18879f678" texcoord="uv-a6a46f29-1a03-44ee-adf2-81a18879f678" />
            </diffuse>
            <emission>
              <color>0.000000 0.000000 0.000000 1.000000</color>
            </emission>
            <ambient>
              <color>0.000000 0.000000 0.000000 1.000000</color>
            </ambient>
            <specular>
              <color>1.000000 1.000000 1.000000 1.000000</color>
            </specular>
            <shininess>
              <float>1.000000</float>
            </shininess>
            <reflective>
              <color>1.000000 1.000000 1.000000 1.000000</color>
            </reflective>
            <reflectivity>
              <float>0.000000</float>
            </reflectivity>
            <transparent>
              <color>1.000000 1.000000 1.000000 1.000000</color>
            </transparent>
            <transparency>
              <float>1.000000</float>
            </transparency>
            <index_of_refraction>
              <float>-0.520000</float>
            </index_of_refraction>
          </phong>
        </technique>
      </profile_COMMON>
      <extra>
        <technique profile="Rhino">
          <appearance_hash>2572812379</appearance_hash>
        </technique>
      </extra>
    </effect>
    <effect id="fx-a7132d53-c283-4477-a44c-98a09dece634">
      <profile_COMMON>
        <technique sid="common">
          <phong>
            <emission>
              <color>0.000000 0.000000 0.000000 1.000000</color>
            </emission>
            <ambient>
              <color>0.000000 0.000000 0.000000 1.000000</color>
            </ambient>
            <diffuse>
              <color>1.000000 1.000000 1.000000 1.000000</color>
            </diffuse>
            <specular>
              <color>1.000000 1.000000 1.000000 1.000000</color>
            </specular>
            <shininess>
              <float>1.000000</float>
            </shininess>
            <reflective>
              <color>1.000000 1.000000 1.000000 1.000000</color>
            </reflective>
            <reflectivity>
              <float>0.000000</float>
            </reflectivity>
            <transparent>
              <color>1.000000 1.000000 1.000000 1.000000</color>
            </transparent>
            <transparency>
              <float>1.000000</float>
            </transparency>
            <index_of_refraction>
              <float>-0.520000</float>
            </index_of_refraction>
          </phong>
        </technique>
      </profile_COMMON>
      <extra>
        <technique profile="Rhino">
          <appearance_hash>27544030</appearance_hash>
        </technique>
      </extra>
    </effect>
  </library_effects>
  <library_geometries>
    <geometry id="mesh-a7d935e3-2444-42af-a7fa-2deafdd2287d" name="物件_1_1">
      <mesh>
        <source id="lib-position-a7d935e3-2444-42af-a7fa-2deafdd2287d" name="position">
          <float_array id="lib-position-array-a7d935e3-2444-42af-a7fa-2deafdd2287d" count="18" digits="17" magnitude="308">-0.7987575531005859 0.019999999552965164 0.19999980926513672 -0.29875755310058594 0.019999999552965164 0.19999980926513672 -0.29875755310058594 0.019999999552965164 -0.19999980926513672 -0.29875755310058594 0.019999999552965164 -0.19999980926513672 -0.7987575531005859 0.019999999552965164 -0.19999980926513672 -0.7987575531005859 0.019999999552965164 0.19999980926513672</float_array>
          <technique_common>
            <accessor count="6" offset="0" source="#lib-position-array-a7d935e3-2444-42af-a7fa-2deafdd2287d" stride="3">
              <param name="X" type="float" />
              <param name="Y" type="float" />
              <param name="Z" type="float" />
            </accessor>
          </technique_common>
        </source>
        <source id="lib-normal-a7d935e3-2444-42af-a7fa-2deafdd2287d" name="normal">
          <float_array id="lib-normal-array-a7d935e3-2444-42af-a7fa-2deafdd2287d" count="18">0.000000 1.000000 0.000000 0.000000 1.000000 0.000000 0.000000 1.000000 0.000000 0.000000 1.000000 0.000000 0.000000 1.000000 0.000000 0.000000 1.000000 0.000000</float_array>
          <technique_common>
            <accessor count="6" offset="0" source="#lib-normal-array-a7d935e3-2444-42af-a7fa-2deafdd2287d" stride="3">
              <param name="X" type="float" />
              <param name="Y" type="float" />
              <param name="Z" type="float" />
            </accessor>
          </technique_common>
        </source>
        <source id="lib-map1-a7d935e3-2444-42af-a7fa-2deafdd2287d" name="map1">
          <float_array id="lib-map1-array-a7d935e3-2444-42af-a7fa-2deafdd2287d" count="12">0.982663 1.885365 0.088496 1.885365 0.088496 1.127804 0.088496 1.127804 0.982663 1.127804 0.982663 1.885365</float_array>
          <technique_common>
            <accessor count="6" offset="0" source="#lib-map1-array-a7d935e3-2444-42af-a7fa-2deafdd2287d" stride="2">
              <param name="S" type="float" />
              <param name="T" type="float" />
            </accessor>
          </technique_common>
        </source>
        <vertices id="lib-vertices-a7d935e3-2444-42af-a7fa-2deafdd2287d">
          <input semantic="POSITION" source="#lib-position-a7d935e3-2444-42af-a7fa-2deafdd2287d" />
        </vertices>
        <triangles count="2" material="material-a7d0b125-de86-4317-8647-fc09f6459f2f">
          <input offset="0" semantic="VERTEX" source="#lib-vertices-a7d935e3-2444-42af-a7fa-2deafdd2287d" />
          <input offset="1" semantic="NORMAL" source="#lib-normal-a7d935e3-2444-42af-a7fa-2deafdd2287d" />
          <input offset="2" semantic="TEXCOORD" source="#lib-map1-a7d935e3-2444-42af-a7fa-2deafdd2287d" />
          <p>0 0 0 1 1 1 2 2 2 3 3 3 4 4 4 5 5 5</p>
        </triangles>
      </mesh>
      <extra>
        <technique profile="Rhino">
          <double_sided>1</double_sided>
        </technique>
      </extra>
    </geometry>
    <geometry id="mesh-a4487d43-eabe-4e00-b930-eaebaa868a80" name="物件_1_0">
      <mesh>
        <source id="lib-position-a4487d43-eabe-4e00-b930-eaebaa868a80" name="position">
          <float_array id="lib-position-array-a4487d43-eabe-4e00-b930-eaebaa868a80" count="90" digits="17" magnitude="308">-0.7987575531005859 1.7763568394002505E-15 -0.19999980926513672 -0.7987575531005859 0.019999999552965164 0.19999980926513672 -0.7987575531005859 0.019999999552965164 -0.19999980926513672 -0.7987575531005859 0.019999999552965164 0.19999980926513672 -0.7987575531005859 1.7763568394002505E-15 -0.19999980926513672 -0.7987575531005859 1.6618650899857812E-15 0.19999980926513672 -0.7987575531005859 0.019999999552965164 -0.19999980926513672 -0.29875755310058594 0.019999999552965164 -0.19999980926513672 -0.29875755310058594 1.7763568394002505E-15 -0.19999980926513672 -0.7987575531005859 0.019999999552965164 -0.19999980926513672 -0.29875755310058594 1.7763568394002505E-15 -0.19999980926513672 -0.7987575531005859 1.7763568394002505E-15 -0.19999980926513672 -0.29875755310058594 1.6618650899857812E-15 0.19999980926513672 -0.29875755310058594 0.019999999552965164 -0.19999980926513672 -0.29875755310058594 0.019999999552965164 0.19999980926513672 -0.29875755310058594 0.019999999552965164 -0.19999980926513672 -0.29875755310058594 1.6618650899857812E-15 0.19999980926513672 -0.29875755310058594 1.7763568394002505E-15 -0.19999980926513672 -0.29875755310058594 0.019999999552965164 0.19999980926513672 -0.7987575531005859 0.019999999552965164 0.19999980926513672 -0.7987575531005859 1.6618650899857812E-15 0.19999980926513672 -0.29875755310058594 0.019999999552965164 0.19999980926513672 -0.7987575531005859 1.6618650899857812E-15 0.19999980926513672 -0.29875755310058594 1.6618650899857812E-15 0.19999980926513672 -0.7987575531005859 1.6618650899857812E-15 0.19999980926513672 -0.29875755310058594 1.7763568394002505E-15 -0.19999980926513672 -0.29875755310058594 1.6618650899857812E-15 0.19999980926513672 -0.29875755310058594 1.7763568394002505E-15 -0.19999980926513672 -0.7987575531005859 1.6618650899857812E-15 0.19999980926513672 -0.7987575531005859 1.7763568394002505E-15 -0.19999980926513672</float_array>
          <technique_common>
            <accessor count="30" offset="0" source="#lib-position-array-a4487d43-eabe-4e00-b930-eaebaa868a80" stride="3">
              <param name="X" type="float" />
              <param name="Y" type="float" />
              <param name="Z" type="float" />
            </accessor>
          </technique_common>
        </source>
        <source id="lib-normal-a4487d43-eabe-4e00-b930-eaebaa868a80" name="normal">
          <float_array id="lib-normal-array-a4487d43-eabe-4e00-b930-eaebaa868a80" count="90">-1.000000 0.000000 0.000000 -1.000000 0.000000 0.000000 -1.000000 0.000000 0.000000 -1.000000 0.000000 0.000000 -1.000000 0.000000 0.000000 -1.000000 0.000000 0.000000 0.000000 0.000000 -1.000000 0.000000 0.000000 -1.000000 0.000000 0.000000 -1.000000 0.000000 0.000000 -1.000000 0.000000 0.000000 -1.000000 0.000000 0.000000 -1.000000 1.000000 0.000000 0.000000 1.000000 0.000000 0.000000 1.000000 0.000000 0.000000 1.000000 0.000000 0.000000 1.000000 0.000000 0.000000 1.000000 0.000000 0.000000 0.000000 -0.000000 1.000000 0.000000 -0.000000 1.000000 0.000000 -0.000000 1.000000 0.000000 -0.000000 1.000000 0.000000 -0.000000 1.000000 0.000000 -0.000000 1.000000 0.000000 -1.000000 -0.000000 0.000000 -1.000000 -0.000000 0.000000 -1.000000 -0.000000 0.000000 -1.000000 -0.000000 0.000000 -1.000000 -0.000000 0.000000 -1.000000 -0.000000</float_array>
          <technique_common>
            <accessor count="30" offset="0" source="#lib-normal-array-a4487d43-eabe-4e00-b930-eaebaa868a80" stride="3">
              <param name="X" type="float" />
              <param name="Y" type="float" />
              <param name="Z" type="float" />
            </accessor>
          </technique_common>
        </source>
        <source id="lib-map1-a4487d43-eabe-4e00-b930-eaebaa868a80" name="map1">
          <float_array id="lib-map1-array-a4487d43-eabe-4e00-b930-eaebaa868a80" count="60">0.663829 1.113804 -0.051504 0.318365 0.663829 0.318365 -0.051504 0.318365 0.663829 1.113804 -0.051504 1.113804 0.663829 0.318365 1.557996 0.318365 1.557996 1.113804 0.663829 0.318365 1.557996 1.113804 0.663829 1.113804 2.273329 1.113804 1.557996 0.318365 2.273329 0.318365 1.557996 0.318365 2.273329 1.113804 1.557996 1.113804 2.273329 0.318365 3.167496 0.318365 3.167496 1.113804 2.273329 0.318365 3.167496 1.113804 2.273329 1.113804 3.167496 1.113804 2.273329 1.871365 2.273329 1.113804 2.273329 1.871365 3.167496 1.113804 3.167496 1.871365</float_array>
          <technique_common>
            <accessor count="30" offset="0" source="#lib-map1-array-a4487d43-eabe-4e00-b930-eaebaa868a80" stride="2">
              <param name="S" type="float" />
              <param name="T" type="float" />
            </accessor>
          </technique_common>
        </source>
        <vertices id="lib-vertices-a4487d43-eabe-4e00-b930-eaebaa868a80">
          <input semantic="POSITION" source="#lib-position-a4487d43-eabe-4e00-b930-eaebaa868a80" />
        </vertices>
        <triangles count="10" material="material-a7132d53-c283-4477-a44c-98a09dece634">
          <input offset="0" semantic="VERTEX" source="#lib-vertices-a4487d43-eabe-4e00-b930-eaebaa868a80" />
          <input offset="1" semantic="NORMAL" source="#lib-normal-a4487d43-eabe-4e00-b930-eaebaa868a80" />
          <input offset="2" semantic="TEXCOORD" source="#lib-map1-a4487d43-eabe-4e00-b930-eaebaa868a80" />
          <p>0 0 0 1 1 1 2 2 2 3 3 3 4 4 4 5 5 5 6 6 6 7 7 7 8 8 8 9 9 9 10 10 10 11 11 11 12 12 12 13 13 13 14 14 14 15 15 15 16 16 16 17 17 17 18 18 18 19 19 19 20 20 20 21 21 21 22 22 22 23 23 23 24 24 24 25 25 25 26 26 26 27 27 27 28 28 28 29 29 29</p>
        </triangles>
      </mesh>
      <extra>
        <technique profile="Rhino">
          <double_sided>1</double_sided>
        </technique>
      </extra>
    </geometry>
  </library_geometries>
  <library_visual_scenes>
    <visual_scene id="VisualSceneNode">
      <node id="View-Perspective" name="View-Perspective">
        <matrix>-0.999329 0.005541 -0.036210 -0.031714 -0.036631 -0.151162 0.987830 2.135305 -0.000000 0.988493 0.151264 0.210656 0.000000 0.000000 0.000000 1.000000</matrix>
        <instance_camera url="#Camera-Perspective" />
      </node>
      <node id="View-Top" name="View-Top">
        <matrix>1.000000 0.000000 -0.000000 0.000001 -0.000000 1.000000 -0.000000 0.010000 0.000000 0.000000 1.000000 0.705010 0.000000 0.000000 0.000000 1.000000</matrix>
        <instance_camera url="#Camera-Top" />
      </node>
      <node id="View-Front" name="View-Front">
        <matrix>1.000000 0.000000 -0.000000 0.000001 0.000000 0.000000 -1.000000 -0.505008 0.000000 1.000000 -0.000000 0.000000 0.000000 0.000000 0.000000 1.000000</matrix>
        <instance_camera url="#Camera-Front" />
      </node>
      <node id="View-Right" name="View-Right">
        <matrix>0.000000 0.000000 1.000000 1.303779 1.000000 0.000000 -0.000000 0.010000 -0.000000 1.000000 -0.000000 0.000000 0.000000 0.000000 0.000000 1.000000</matrix>
        <instance_camera url="#Camera-Right" />
      </node>
      <node id="ad8ab49c-6a7d-40c3-bd08-9a8dceb09b72" name="物件_1_1">
        <instance_geometry url="#mesh-a7d935e3-2444-42af-a7fa-2deafdd2287d">
          <bind_material>
            <technique_common>
              <instance_material symbol="material-a7d0b125-de86-4317-8647-fc09f6459f2f" target="#a7d0b125-de86-4317-8647-fc09f6459f2f">
                <bind_vertex_input semantic="uv-a6a46f29-1a03-44ee-adf2-81a18879f678" input_semantic="TEXCOORD" input_set="0" />
              </instance_material>
            </technique_common>
          </bind_material>
        </instance_geometry>
      </node>
      <node id="d6adb7a2-8b11-431c-8b56-4050f6a06343" name="物件_1_0">
        <instance_geometry url="#mesh-a4487d43-eabe-4e00-b930-eaebaa868a80">
          <bind_material>
            <technique_common>
              <instance_material symbol="material-a7132d53-c283-4477-a44c-98a09dece634" target="#a7132d53-c283-4477-a44c-98a09dece634" />
            </technique_common>
          </bind_material>
        </instance_geometry>
      </node>
    </visual_scene>
  </library_visual_scenes>
  <scene>
    <instance_visual_scene url="#VisualSceneNode" />
  </scene>
</COLLADA>